HIERARCHY
ROOT hip
{
  OFFSET 4.77551 80.0829 152.221
  CHANNELS 6 Xposition Yposition Zposition Zrotation Xrotation Yrotation
  JOINT abdomen
  {
    OFFSET 0 20.6881 -0.73152
    CHANNELS 3 Zrotation Xrotation Yrotation
    JOINT chest
    {
      OFFSET 0 11.7043 -0.48768
      CHANNELS 3 Zrotation Xrotation Yrotation
      JOINT neck
      {
        OFFSET 0 22.1894 -2.19456
        CHANNELS 3 Zrotation Xrotation Yrotation
        JOINT head
        {
          OFFSET -0.24384 7.07133 1.2192
          CHANNELS 3 Zrotation Xrotation Yrotation
          JOINT leftEye
          {
            OFFSET 4.14528 8.04674 8.04672
            CHANNELS 3 Zrotation Xrotation Yrotation
            End Site
            {
              OFFSET 1 0 0
            }
          }
          JOINT rightEye
          {
            OFFSET -3.6576 8.04674 8.04672
            CHANNELS 3 Zrotation Xrotation Yrotation
            End Site
            {
              OFFSET 1 0 0
            }
          }
        }
      }
      JOINT rCollar
      {
        OFFSET -2.68224 19.2634 -4.8768
        CHANNELS 3 Zrotation Xrotation Yrotation
        JOINT rShldr
        {
          OFFSET -8.77824 -1.95073 1.46304
          CHANNELS 3 Zrotation Xrotation Yrotation
          JOINT rForeArm
          {
            OFFSET -28.1742 -1.7115 0.48768
            CHANNELS 3 Zrotation Xrotation Yrotation
            JOINT rHand
            {
              OFFSET -22.5879 0.773209 7.07136
              CHANNELS 3 Zrotation Xrotation Yrotation
              JOINT rThumb1
              {
                OFFSET -1.2192 -0.487915 3.41376
                CHANNELS 3 Zrotation Xrotation Yrotation
                JOINT rThumb2
                {
                  OFFSET -3.37035 -0.52449 3.41376
                  CHANNELS 3 Zrotation Xrotation Yrotation
                  End Site
                  {
                    OFFSET -1.78271 -1.18214 1.43049
                  }
                }
              }
              JOINT rIndex1
              {
                OFFSET -7.75947 0.938293 5.60832
                CHANNELS 3 Zrotation Xrotation Yrotation
                JOINT rIndex2
                {
                  OFFSET -2.54057 -0.884171 1.56538
                  CHANNELS 3 Zrotation Xrotation Yrotation
                  End Site
                  {
                    OFFSET -1.62519 -0.234802 1.16502
                  }
                }
              }
              JOINT rMid1
              {
                OFFSET -8.24714 1.18213 3.41376
                CHANNELS 3 Zrotation Xrotation Yrotation
                JOINT rMid2
                {
                  OFFSET -3.10165 -0.590103 1.0647
                  CHANNELS 3 Zrotation Xrotation Yrotation
                  End Site
                  {
                    OFFSET -2.48547 -0.328903 0.83742
                  }
                }
              }
              JOINT rRing1
              {
                OFFSET -8.82822 0.546677 1.51678
                CHANNELS 3 Zrotation Xrotation Yrotation
                JOINT rRing2
                {
                  OFFSET -2.60934 -0.819778 -0.0198488
                  CHANNELS 3 Zrotation Xrotation Yrotation
                  End Site
                  {
                    OFFSET -2.33842 -0.294052 0.168128
                  }
                }
              }
              JOINT rPinky1
              {
                OFFSET -8.27202 -0.0477905 -0.4584
                CHANNELS 3 Zrotation Xrotation Yrotation
                JOINT rPinky2
                {
                  OFFSET -1.82734 -0.647385 -0.700984
                  CHANNELS 3 Zrotation Xrotation Yrotation
                  End Site
                  {
                    OFFSET -1.69225 -0.51767 -0.607171
                  }
                }
              }
            }
          }
        }
      }
      JOINT lCollar
      {
        OFFSET 2.68224 19.2634 -4.8768
        CHANNELS 3 Zrotation Xrotation Yrotation
        JOINT lShldr
        {
          OFFSET 8.77824 -1.95073 1.46304
          CHANNELS 3 Zrotation Xrotation Yrotation
          JOINT lForeArm
          {
            OFFSET 28.1742 -1.7115 0.48768
            CHANNELS 3 Zrotation Xrotation Yrotation
            JOINT lHand
            {
              OFFSET 22.5879 0.773209 7.07136
              CHANNELS 3 Zrotation Xrotation Yrotation
              JOINT lThumb1
              {
                OFFSET 1.2192 -0.487915 3.41376
                CHANNELS 3 Zrotation Xrotation Yrotation
                JOINT lThumb2
                {
                  OFFSET 3.37035 -0.52449 3.41376
                  CHANNELS 3 Zrotation Xrotation Yrotation
                  End Site
                  {
                    OFFSET 1.78271 -1.18214 1.43049
                  }
                }
              }
              JOINT lIndex1
              {
                OFFSET 7.75947 0.938293 5.60832
                CHANNELS 3 Zrotation Xrotation Yrotation
                JOINT lIndex2
                {
                  OFFSET 2.54057 -0.884171 1.56538
                  CHANNELS 3 Zrotation Xrotation Yrotation
                  End Site
                  {
                    OFFSET 1.62519 -0.234802 1.16502
                  }
                }
              }
              JOINT lMid1
              {
                OFFSET 8.24714 1.18213 3.41376
                CHANNELS 3 Zrotation Xrotation Yrotation
                JOINT lMid2
                {
                  OFFSET 3.10165 -0.590103 1.0647
                  CHANNELS 3 Zrotation Xrotation Yrotation
                  End Site
                  {
                    OFFSET 2.48547 -0.328903 0.83742
                  }
                }
              }
              JOINT lRing1
              {
                OFFSET 8.82822 0.546677 1.51678
                CHANNELS 3 Zrotation Xrotation Yrotation
                JOINT lRing2
                {
                  OFFSET 2.60934 -0.819778 -0.0198488
                  CHANNELS 3 Zrotation Xrotation Yrotation
                  End Site
                  {
                    OFFSET 2.33842 -0.294052 0.168128
                  }
                }
              }
              JOINT lPinky1
              {
                OFFSET 8.27202 -0.0477905 -0.4584
                CHANNELS 3 Zrotation Xrotation Yrotation
                JOINT lPinky2
                {
                  OFFSET 1.82734 -0.647385 -0.700984
                  CHANNELS 3 Zrotation Xrotation Yrotation
                  End Site
                  {
                    OFFSET 1.69225 -0.51767 -0.607171
                  }
                }
              }
            }
          }
        }
      }
    }
  }
  JOINT rButtock
  {
    OFFSET -8.77824 4.35084 1.2192
    CHANNELS 3 Zrotation Xrotation Yrotation
    JOINT rThigh
    {
      OFFSET 0 -1.70687 -2.19456
      CHANNELS 3 Zrotation Xrotation Yrotation
      JOINT rShin
      {
        OFFSET 0 -36.8199 0.73152
        CHANNELS 3 Zrotation Xrotation Yrotation
        JOINT rFoot
        {
          OFFSET 0.73152 -45.1104 -5.12064
          CHANNELS 3 Zrotation Xrotation Yrotation
          End Site
          {
            OFFSET -1.1221 -3.69964 12.103
          }
        }
      }
    }
  }
  JOINT lButtock
  {
    OFFSET 8.77824 4.35084 1.2192
    CHANNELS 3 Zrotation Xrotation Yrotation
    JOINT lThigh
    {
      OFFSET 0 -1.70687 -2.19456
      CHANNELS 3 Zrotation Xrotation Yrotation
      JOINT lShin
      {
        OFFSET 0 -36.8199 0.73152
        CHANNELS 3 Zrotation Xrotation Yrotation
        JOINT lFoot
        {
          OFFSET -0.73152 -45.1104 -5.12064
          CHANNELS 3 Zrotation Xrotation Yrotation
          End Site
          {
            OFFSET 1.1221 -3.69964 12.103
          }
        }
      }
    }
  }
}
MOTION
Frames:	7
Frame Time:	0.00833333
7.62907 85.2343 -194.803 -0.535984 -0.000989689 0.00934292 0.705189 -0.00371385 0.0199543 0.194579 -0.00526913 0.033714 2.12352e-014 1.59028e-015 -3.56916e-023 6.33673e-014 1.59028e-014 -4.50372e-017 -0 0 0 -0 0 0 1.07831e-014 -7.76503e-019 1.49089e-016 2.22282e-013 -1.92573e-016 1.19271e-015 3.81498e-012 -1.14142e-012 -2.54444e-014 4.36117e-011 1.1283e-012 3.18055e-014 1.02876e-010 -2.76388e-014 9.54166e-015 1.77653e-010 -5.08889e-014 7.15625e-015 1.0288e-010 -3.02153e-014 3.18055e-015 7.73091 5.47488 0.417314 1.02876e-010 -2.76311e-014 9.54166e-015 2.90554 0.965183 0.102902 1.02878e-010 -2.77305e-014 1.03368e-014 10.2786 0.731801 0.0259123 1.02868e-010 -2.5842e-014 2.54444e-014 2.22167 -0.733487 -0.20892 1.04876e-014 -1.16475e-018 -1.49089e-016 2.20743e-013 -1.86361e-016 -3.97569e-016 3.80374e-012 1.13983e-012 -1.59028e-014 4.36169e-011 -1.14796e-012 3.49861e-014 1.02872e-010 -1.77385e-014 2.22639e-014 1.77662e-010 -3.49861e-014 2.78299e-014 1.02868e-010 -1.82882e-014 2.8625e-014 -7.73091 5.47488 -0.417314 1.02873e-010 -1.80894e-014 1.27222e-014 -2.90554 0.965183 -0.102902 1.02867e-010 -1.80894e-014 1.43125e-014 -10.2786 0.731801 -0.0259123 1.02874e-010 -1.51076e-014 3.18055e-015 -2.22167 -0.733487 0.20892 -2.03217e-016 0 -3.88251e-019 1.03768 -4.8484 -0.0878816 -0.00129062 3.22991 0.00171995 -0.507991 1.61857 0.0909494 2.03217e-016 0 3.88251e-019 0.0358221 -2.16336 0.0186164 0.00864535 -1.63356 0.0730532 0.498157 3.79688 -0.134158 
6.63273 83.6474 -196.944 -1.5247 1.8294 -1.02928 1.83013 -2.18968 -1.12657 1.09561 2.12932 -0.379513 -3.19925 3.19567 -3.6165 6.7864 2.20315 -7.53197 -0 0 0 -0 0 0 3.36811e-014 -8.43102e-015 2.00004e-014 16.455 10.9139 -3.57178 -6.8393 -3.89758 9.68759 0.0376602 -4.30725 -0.599184 -1.46706e-010 1.55647e-010 1.1385e-010 -2.5423e-010 2.70513e-010 1.9476e-010 -1.46703e-010 1.55646e-010 1.13845e-010 7.73091 5.47488 0.417314 -1.46707e-010 1.55647e-010 1.13848e-010 2.90554 0.965183 0.102902 -1.46702e-010 1.55647e-010 1.1385e-010 10.2786 0.731801 0.0259123 -1.46714e-010 1.55648e-010 1.13863e-010 2.22167 -0.733487 -0.20892 3.34404e-014 -8.42982e-015 1.97406e-014 -20.7513 9.7816 5.68263 8.15609 -5.0702 -10.9139 0.000493211 -0.113161 0.0159225 -2.46189e-010 -2.95619e-010 -5.17134e-011 -4.26118e-010 -5.11329e-010 -8.91466e-011 -2.46195e-010 -2.95619e-010 -5.17061e-011 -7.73091 5.47488 -0.417314 -2.46188e-010 -2.95618e-010 -5.17192e-011 -2.90554 0.965183 -0.102902 -2.46195e-010 -2.95618e-010 -5.17188e-011 -10.2786 0.731801 -0.0259123 -2.46187e-010 -2.95617e-010 -5.17298e-011 -2.22167 -0.733487 0.20892 -2.03217e-016 0 -3.88251e-019 1.50413 -7.62118 -0.142348 0.00967752 9.5868 0.114521 -0.623972 -3.4067 -1.23613 2.03217e-016 0 3.88251e-019 1.5349 -5.26955 -0.92257 -0.0140761 5.77374 -0.0713149 0.688664 -2.00211 2.04693 
6.57703 83.5816 -196.934 -2.4967 3.76556 -2.12883 2.91589 -4.50817 -2.34258 2.07802 4.38143 -0.817323 -6.14047 6.53229 -7.47271 14.5936 4.3559 -15.513 -0 0 0 -0 0 0 5.76982e-014 -1.94331e-014 4.46209e-014 35.4555 22.3876 -7.85445 -12.6812 -7.67165 20.1066 -0.0215291 -8.85294 -1.24311 -4.20478e-010 3.24842e-010 2.49831e-010 -7.2811e-010 5.64709e-010 4.27604e-010 -4.20475e-010 3.24843e-010 2.49827e-010 7.73091 5.47488 0.417314 -4.2048e-010 3.24843e-010 2.49827e-010 2.90554 0.965183 0.102902 -4.20472e-010 3.24842e-010 2.49831e-010 10.2786 0.731801 0.0259123 -4.20485e-010 3.24843e-010 2.49842e-010 2.22167 -0.733487 -0.20892 5.75137e-014 -1.94301e-014 4.44004e-014 -44.9037 19.8667 12.2785 14.7123 -9.82179 -22.7216 0.0014254 -0.174496 0.0245746 -6.13649e-010 -6.13996e-010 -9.76269e-011 -1.06182e-009 -1.06206e-009 -1.68131e-010 -6.13658e-010 -6.13995e-010 -9.76186e-011 -7.73091 5.47488 -0.417314 -6.13649e-010 -6.13994e-010 -9.76287e-011 -2.90554 0.965183 -0.102902 -6.13657e-010 -6.13994e-010 -9.76295e-011 -10.2786 0.731801 -0.0259123 -6.13649e-010 -6.13995e-010 -9.76405e-011 -2.22167 -0.733487 0.20892 -2.03217e-016 0 -3.88251e-019 1.99061 -10.5507 -0.198431 -0.00698792 16.3041 0.240139 -1.00329 -8.71401 -2.67026 2.03217e-016 0 3.88251e-019 3.00573 -8.55019 -1.93298 0.00330463 13.6039 -0.22953 1.3735 -8.11341 4.39344 
6.57716 83.5864 -197.049 -3.30237 5.48298 -3.11923 3.81627 -6.55116 -3.43962 2.99052 6.3972 -1.21273 -8.3815 9.43335 -10.9829 22.0552 6.15384 -22.7173 -0 0 0 -0 0 0 7.94773e-014 -2.52915e-014 5.9703e-014 54.0464 32.1851 -12.4599 -16.6992 -10.3571 29.5222 -0.163206 -12.916 -1.83902 -6.45871e-010 4.66995e-010 3.41531e-010 -1.118e-009 8.11641e-010 5.84267e-010 -6.45868e-010 4.66999e-010 3.41527e-010 7.73091 5.47488 0.417314 -6.45873e-010 4.66996e-010 3.41525e-010 2.90554 0.965183 0.102902 -6.45863e-010 4.66996e-010 3.4153e-010 10.2786 0.731801 0.0259123 -6.45878e-010 4.66996e-010 3.41539e-010 2.22167 -0.733487 -0.20892 7.9346e-014 -2.52871e-014 5.95201e-014 -68.6303 28.1134 19.128 18.9025 -13.0002 -33.5817 0.00166832 -0.339483 0.0477683 -9.4431e-010 -8.86821e-010 -1.55185e-010 -1.63368e-009 -1.53392e-009 -2.67495e-010 -9.4432e-010 -8.8682e-010 -1.55175e-010 -7.73091 5.47488 -0.417314 -9.4431e-010 -8.86819e-010 -1.55183e-010 -2.90554 0.965183 -0.102902 -9.44318e-010 -8.86818e-010 -1.55185e-010 -10.2786 0.731801 -0.0259123 -9.4431e-010 -8.86821e-010 -1.55196e-010 -2.22167 -0.733487 0.20892 -2.03217e-016 0 -3.88251e-019 2.42075 -13.1667 -0.254838 -0.048895 22.3002 0.36244 -1.56937 -13.4281 -3.99299 2.03217e-016 0 3.88251e-019 4.22144 -11.4701 -2.85019 0.0579428 20.5879 -0.383392 2.41916 -13.5174 6.58804 
6.52308 83.6054 -197.063 -3.83339 6.66038 -3.8246 4.44132 -7.91542 -4.2198 3.66315 7.82332 -1.49577 -9.7307 11.3911 -13.5012 27.5413 7.47004 -27.8765 -0 0 0 -0 0 0 9.56614e-014 -1.82905e-014 5.09386e-014 67.9157 38.3628 -16.1 -18.8589 -11.6408 35.9766 -0.315398 -15.778 -2.27586 -7.50317e-010 5.41545e-010 3.22524e-010 -1.29789e-009 9.40414e-010 5.50474e-010 -7.50315e-010 5.4155e-010 3.22521e-010 7.73091 5.47488 0.417314 -7.5032e-010 5.41546e-010 3.22518e-010 2.90554 0.965183 0.102902 -7.50307e-010 5.41546e-010 3.22523e-010 10.2786 0.731801 0.0259123 -7.50323e-010 5.41546e-010 3.22531e-010 2.22167 -0.733487 -0.20892 9.55757e-014 -1.82859e-014 5.07895e-014 -86.4262 32.9807 24.5182 21.0385 -14.3765 -41.2645 0.000715166 -0.763595 0.107323 -1.18297e-009 -1.04577e-009 -2.41853e-010 -2.04592e-009 -1.80857e-009 -4.17807e-010 -1.18298e-009 -1.04577e-009 -2.41843e-010 -7.73091 5.47488 -0.417314 -1.18297e-009 -1.04577e-009 -2.41849e-010 -2.90554 0.965183 -0.102902 -1.18298e-009 -1.04577e-009 -2.41852e-010 -10.2786 0.731801 -0.0259123 -1.18297e-009 -1.04577e-009 -2.41862e-010 -2.22167 -0.733487 0.20892 -2.03217e-016 0 -3.88251e-019 2.72039 -14.999 -0.309437 -0.0953934 26.4935 0.456329 -2.08843 -16.6884 -4.9331 2.03217e-016 0 3.88251e-019 5.02226 -13.4993 -3.49387 0.121122 25.457 -0.50273 3.40518 -17.2365 8.21048 
6.4964 83.6115 -197.1 -4.04672 7.08868 -4.11996 4.76593 -8.33635 -4.54715 3.97239 8.43335 -1.61869 -10.2261 12.1228 -14.5468 29.8273 8.43241 -30.1327 -0 0 0 -0 0 0 1.07649e-013 2.18834e-014 -4.10692e-015 72.9583 39.9471 -16.8722 -19.4294 -11.8271 38.0545 -0.392226 -16.9985 -2.46719 -6.63194e-010 5.45421e-010 6.79649e-011 -1.14462e-009 9.44484e-010 1.10825e-010 -6.63192e-010 5.45425e-010 6.79606e-011 7.73091 5.47488 0.417314 -6.63196e-010 5.45422e-010 6.79592e-011 2.90554 0.965183 0.102902 -6.63185e-010 5.45422e-010 6.79626e-011 10.2786 0.731801 0.0259123 -6.63199e-010 5.45423e-010 6.79692e-011 2.22167 -0.733487 -0.20892 1.07603e-013 2.18867e-014 -4.22301e-015 -93.3633 34.046 26.3363 21.7031 -14.6555 -44.1799 0.000659463 -1.58113 0.222183 -1.32192e-009 -1.02906e-009 -4.02942e-010 -2.28461e-009 -1.77883e-009 -6.97829e-010 -1.32193e-009 -1.02906e-009 -4.02933e-010 -7.73091 5.47488 -0.417314 -1.32192e-009 -1.02906e-009 -4.0294e-010 -2.90554 0.965183 -0.102902 -1.32193e-009 -1.02906e-009 -4.02942e-010 -10.2786 0.731801 -0.0259123 -1.32192e-009 -1.02906e-009 -4.02952e-010 -2.22167 -0.733487 0.20892 -2.03217e-016 0 -3.88251e-019 2.84493 -15.7392 -0.365112 -0.118594 28.1644 0.495704 -2.2983 -17.9335 -5.25439 2.03217e-016 0 3.88251e-019 5.35107 -14.2937 -3.71993 0.152925 27.3656 -0.554008 3.84672 -18.6631 8.86521 
6.46355 83.6157 -197.252 -4.04776 6.98322 -4.12014 4.89497 -8.0855 -4.54721 4.01479 8.4603 -1.62575 -10.2017 12.0098 -14.5159 29.6999 9.23917 -30.2992 -0 0 0 -0 0 0 1.16465e-013 8.503e-014 -9.15962e-014 71.2622 38.3473 -15.2598 -19.031 -11.4354 36.9811 -0.391983 -17.0459 -2.47405 -4.40295e-010 4.97675e-010 -3.5101e-010 -7.55232e-010 8.57542e-010 -6.1209e-010 -4.40294e-010 4.97677e-010 -3.51016e-010 7.73091 5.47488 0.417314 -4.40297e-010 4.97674e-010 -3.51014e-010 2.90554 0.965183 0.102902 -4.40288e-010 4.97675e-010 -3.51013e-010 10.2786 0.731801 0.0259123 -4.40298e-010 4.97676e-010 -3.51008e-010 2.22167 -0.733487 -0.20892 1.16456e-013 8.50307e-014 -9.16801e-014 -92.0209 32.6504 25.2708 21.5624 -14.5349 -43.6572 0.00545486 -2.6782 0.376544 -1.38826e-009 -8.87662e-010 -6.15586e-010 -2.39696e-009 -1.53302e-009 -1.06772e-009 -1.38827e-009 -8.87654e-010 -6.15579e-010 -7.73091 5.47488 -0.417314 -1.38826e-009 -8.87654e-010 -6.15587e-010 -2.90554 0.965183 -0.102902 -1.38827e-009 -8.87654e-010 -6.15589e-010 -10.2786 0.731801 -0.0259123 -1.38826e-009 -8.87658e-010 -6.15598e-010 -2.22167 -0.733487 0.20892 -2.03217e-016 0 -3.88251e-019 2.84617 -15.6989 -0.420671 -0.117218 28.0338 0.491518 -2.23094 -17.7454 -5.11054 2.03217e-016 0 3.88251e-019 5.36607 -14.208 -3.64058 0.150691 27.1597 -0.550086 3.78651 -18.472 8.7805 
